<svg width="776" height="806" viewBox="0 0 776 806" fill="none" xmlns="http://www.w3.org/2000/svg">
<ellipse cx="388" cy="404.5" rx="379.5" ry="394" fill="url(#paint0_linear_2_136)"/>
<path fill-rule="evenodd" clip-rule="evenodd" d="M775.062 396.485C785.062 589.765 623.019 809.423 388.031 805.447C172.514 801.8 0.5 625.794 0.5 385.544C1.50008 183.928 174.886 4.27881 388.031 0.546642C566.545 -2.57916 766.561 151.628 775.062 396.485ZM146.512 681.876C118.509 681.876 100.508 664.867 100.508 638.065L100.508 571.961C100.508 484.167 100.508 346.845 100.508 321.085C100.508 306.431 101.608 296.86 113.509 286.037C129.01 271.939 340.027 90.6941 359.029 72.6546C378.03 54.6151 395.031 54.6151 417.033 72.6546C439.035 90.6942 638.55 264.389 656.552 279.852C673.954 294.799 677.054 302.015 677.054 328.816C677.054 339.125 676.554 605.594 676.554 633.427C676.554 664.352 659.052 681.36 635.55 681.36H506.04C479.038 681.36 476.668 677.237 459.036 659.713C445.035 645.797 360.029 559.207 358.528 557.661C357.028 556.114 350.281 550.96 349.028 550.96C347.028 550.96 334.527 565.392 334.527 568.484C334.527 581.885 334.965 612.814 334.527 638.581C334.027 667.959 316.525 681.876 285.523 681.876H146.512Z" fill="#DAF3F7" stroke="#DBF3F7"/>
<path d="M175.491 608.75H266.066L266.564 373.798V366.148C266.564 310.962 332.754 309.323 332.754 366.148L333.252 456.851H335.74L446.222 335.55C476.58 302.22 527.342 354.128 493.003 392.376C458.664 430.624 398.446 496.738 398.446 496.738L493.003 600.008C493.003 600.008 503.454 612.028 513.905 611.482C524.356 610.936 599.504 611.482 599.504 611.482C599.504 497.536 601.5 352.888 601.5 338.073C601.5 323.258 600.002 323.161 584.135 306.464C568.267 289.768 425.7 164.475 405.376 147.918C385.052 131.361 385.976 131.361 366.576 147.918C347.176 164.475 207.46 288.656 190.48 306.464C173.5 324.272 173.5 327.035 173.5 338.073C173.499 394.769 175.491 608.75 175.491 608.75Z" fill="#DCF3F8"/>
<path d="M335.74 456.851H333.252L332.754 366.148C332.754 309.323 266.564 310.962 266.564 366.148V373.798L266.066 608.75H175.491C175.491 608.75 173.499 394.769 173.5 338.073C173.5 327.035 173.5 324.272 190.48 306.464C207.46 288.656 347.176 164.475 366.576 147.918C385.976 131.361 385.052 131.361 405.376 147.918C425.7 164.475 568.267 289.768 584.135 306.464C600.002 323.161 601.5 323.258 601.5 338.073C601.5 352.888 599.504 497.536 599.504 611.482C599.504 611.482 524.356 610.936 513.905 611.482C503.454 612.028 493.003 600.008 493.003 600.008L398.446 496.738C398.446 496.738 458.664 430.624 493.003 392.376C527.342 354.128 476.58 302.22 446.222 335.55M335.74 456.851C335.74 456.851 415.865 368.88 446.222 335.55M335.74 456.851L446.222 335.55" stroke="#DBF3F7"/>
<defs>
<linearGradient id="paint0_linear_2_136" x1="118.188" y1="648.017" x2="654.874" y2="648.489" gradientUnits="userSpaceOnUse">
<stop stop-color="#2956BE"/>
<stop offset="0.777751" stop-color="#29C2A7"/>
</linearGradient>
</defs>
</svg>
